<svg width="12" height="12" viewBox="0 0 12 12" fill="none" xmlns="http://www.w3.org/2000/svg">
<path d="M5.44444 1H6.55556C6.86238 1 7.11111 1.24873 7.11111 1.55556V1.87155C7.11111 2.10921 7.27062 2.31569 7.49012 2.40682C7.7097 2.49799 7.96537 2.46325 8.13349 2.29513L8.357 2.07162C8.57396 1.85466 8.92572 1.85466 9.14267 2.07162L9.92835 2.85729C10.1453 3.07425 10.1453 3.42601 9.92835 3.64296L9.70487 3.86644C9.53674 4.03457 9.50199 4.29026 9.59317 4.50986C9.6843 4.72937 9.89079 4.88889 10.1285 4.88889L10.4444 4.88889C10.7513 4.88889 11 5.13762 11 5.44444V6.55556C11 6.86238 10.7513 7.11111 10.4444 7.11111H10.1285C9.89079 7.11111 9.68431 7.27062 9.59317 7.49013C9.502 7.70972 9.53675 7.9654 9.70487 8.13353L9.92836 8.35701C10.1453 8.57397 10.1453 8.92573 9.92836 9.14269L9.14268 9.92836C8.92573 10.1453 8.57397 10.1453 8.35701 9.92836L8.13352 9.70487C7.9654 9.53675 7.70972 9.502 7.49013 9.59317C7.27062 9.68431 7.11111 9.89079 7.11111 10.1285V10.4444C7.11111 10.7513 6.86238 11 6.55556 11H5.44444C5.13762 11 4.88889 10.7513 4.88889 10.4444V10.1285C4.88889 9.89079 4.72937 9.6843 4.50986 9.59317C4.29026 9.50199 4.03457 9.53674 3.86644 9.70487L3.64296 9.92836C3.426 10.1453 3.07424 10.1453 2.85728 9.92836L2.07161 9.14268C1.85465 8.92573 1.85465 8.57397 2.07161 8.35701L2.29513 8.13349C2.46325 7.96537 2.49799 7.7097 2.40682 7.49012C2.31569 7.27062 2.10921 7.11111 1.87155 7.11111H1.55556C1.24873 7.11111 1 6.86238 1 6.55556V5.44444C1 5.13762 1.24873 4.88889 1.55556 4.88889L1.87154 4.88889C2.10921 4.88889 2.31569 4.72938 2.40683 4.50987C2.498 4.29028 2.46325 4.0346 2.29513 3.86648L2.07162 3.64297C1.85466 3.42601 1.85466 3.07425 2.07162 2.85729L2.85729 2.07162C3.07425 1.85466 3.42601 1.85466 3.64296 2.07162L3.86648 2.29513C4.0346 2.46325 4.29028 2.498 4.50987 2.40683C4.72938 2.31569 4.88889 2.10921 4.88889 1.87154V1.55556C4.88889 1.24873 5.13762 1 5.44444 1Z" stroke="#FFFFFF"/>
<path d="M7.11111 6C7.11111 6.61365 6.61365 7.11111 6 7.11111C5.38635 7.11111 4.88889 6.61365 4.88889 6C4.88889 5.38635 5.38635 4.88889 6 4.88889C6.61365 4.88889 7.11111 5.38635 7.11111 6Z" stroke="#FFFFFF"/>
</svg>
