<svg width="16" height="16" viewBox="0 0 16 16" fill="none" xmlns="http://www.w3.org/2000/svg">
<path d="M7.22222 1H8.77778C9.20733 1 9.55556 1.34822 9.55556 1.77778V2.22017C9.55556 2.5529 9.77887 2.84197 10.0862 2.96955C10.3936 3.09719 10.7515 3.04854 10.9869 2.81318L11.2998 2.50026C11.6035 2.19652 12.096 2.19652 12.3997 2.50026L13.4997 3.60021C13.8034 3.90395 13.8034 4.39641 13.4997 4.70015L13.1868 5.01302C12.9514 5.2484 12.9028 5.60636 13.0304 5.9138C13.158 6.22112 13.4471 6.44444 13.7799 6.44444L14.2222 6.44444C14.6518 6.44444 15 6.79267 15 7.22222V8.77778C15 9.20733 14.6518 9.55555 14.2222 9.55555H13.7799C13.4471 9.55555 13.158 9.77887 13.0304 10.0862C12.9028 10.3936 12.9514 10.7516 13.1868 10.9869L13.4997 11.2998C13.8034 11.6036 13.8034 12.096 13.4997 12.3998L12.3998 13.4997C12.096 13.8034 11.6036 13.8034 11.2998 13.4997L10.9869 13.1868C10.7516 12.9514 10.3936 12.9028 10.0862 13.0304C9.77887 13.158 9.55556 13.4471 9.55556 13.7798V14.2222C9.55556 14.6518 9.20733 15 8.77778 15H7.22222C6.79267 15 6.44444 14.6518 6.44444 14.2222V13.7799C6.44444 13.4471 6.22112 13.158 5.9138 13.0304C5.60636 12.9028 5.2484 12.9514 5.01302 13.1868L4.70014 13.4997C4.3964 13.8034 3.90393 13.8034 3.60019 13.4997L2.50025 12.3998C2.19651 12.096 2.19651 11.6036 2.50025 11.2998L2.81318 10.9869C3.04854 10.7515 3.09719 10.3936 2.96955 10.0862C2.84197 9.77887 2.5529 9.55556 2.22017 9.55556H1.77778C1.34822 9.55556 1 9.20733 1 8.77778V7.22222C1 6.79267 1.34822 6.44444 1.77778 6.44444L2.22015 6.44444C2.55289 6.44444 2.84197 6.22113 2.96956 5.91382C3.0972 5.60639 3.04855 5.24844 2.81318 5.01307L2.50026 4.70015C2.19652 4.39641 2.19652 3.90395 2.50026 3.60021L3.60021 2.50026C3.90395 2.19652 4.39641 2.19652 4.70015 2.50026L5.01307 2.81318C5.24844 3.04856 5.60639 3.0972 5.91382 2.96956C6.22113 2.84197 6.44444 2.55289 6.44444 2.22015V1.77778C6.44444 1.34822 6.79267 1 7.22222 1Z" stroke="#212C33" stroke-width="1.2"/>
<path d="M9.55556 8C9.55556 8.85911 8.85911 9.55556 8 9.55556C7.14089 9.55556 6.44444 8.85911 6.44444 8C6.44444 7.14089 7.14089 6.44444 8 6.44444C8.85911 6.44444 9.55556 7.14089 9.55556 8Z" stroke="#212C33" stroke-width="1.2"/>
</svg>
