<svg width="18" height="20" viewBox="0 0 18 20" fill="none" xmlns="http://www.w3.org/2000/svg">
<g clip-path="url(#clip0_1_3)">
<path d="M2.5 1.25C1.12109 1.25 0 2.37109 0 3.75V16.25C0 17.6289 1.12109 18.75 2.5 18.75H15C16.3789 18.75 17.5 17.6289 17.5 16.25V3.75C17.5 2.37109 16.3789 1.25 15 1.25H2.5ZM8.51562 10.6133L2.50781 6.73437C2.57812 6.10937 3.10547 5.625 3.75 5.625H13.75C14.3945 5.625 14.9219 6.10937 14.9922 6.73437L8.98438 10.6133C8.91406 10.6602 8.83203 10.6836 8.75 10.6836C8.66797 10.6836 8.58594 10.6602 8.51562 10.6133ZM9.66406 11.6641L15 8.21875V13.125C15 13.8164 14.4414 14.375 13.75 14.375H3.75C3.05859 14.375 2.5 13.8164 2.5 13.125V8.21875L7.83594 11.6641C8.10938 11.8398 8.42578 11.9336 8.75 11.9336C9.07422 11.9336 9.39062 11.8398 9.66406 11.6641V11.6641Z" fill="#8B8D8D"/>
</g>
<defs>
<clipPath id="clip0_1_3">
<rect width="17.5" height="20" fill="white"/>
</clipPath>
</defs>
</svg>
