<svg width="16" height="16" viewBox="0 0 16 16" fill="none" xmlns="http://www.w3.org/2000/svg">
<path d="M5.4212 6.95605L10.5764 4.37847M10.5788 11.6228L5.42851 9.04761M15 3.33333C15 4.622 13.9553 5.66667 12.6667 5.66667C11.378 5.66667 10.3333 4.622 10.3333 3.33333C10.3333 2.04467 11.378 1 12.6667 1C13.9553 1 15 2.04467 15 3.33333ZM5.66667 8C5.66667 9.28866 4.622 10.3333 3.33333 10.3333C2.04467 10.3333 1 9.28866 1 8C1 6.71134 2.04467 5.66667 3.33333 5.66667C4.622 5.66667 5.66667 6.71134 5.66667 8ZM15 12.6667C15 13.9553 13.9553 15 12.6667 15C11.378 15 10.3333 13.9553 10.3333 12.6667C10.3333 11.378 11.378 10.3333 12.6667 10.3333C13.9553 10.3333 15 11.378 15 12.6667Z" stroke="white" stroke-width="1.2"/>
</svg>
